<svg viewBox="0 0 12 13" fill="none" xmlns="http://www.w3.org/2000/svg">
  <path fill-rule="evenodd" clip-rule="evenodd"
    d="M9.41556 6.97239C9.41556 7.37234 9.35494 7.75814 9.2424 8.12109L8.52423 7.40293C8.54435 7.26232 8.55476 7.11857 8.55476 6.97239V6.1116C8.55476 5.8739 8.74746 5.6812 8.98516 5.6812C9.22286 5.6812 9.41556 5.8739 9.41556 6.1116V6.97239ZM7.69397 2.23804V6.57267L3.39002 2.26871V2.23804C3.39002 1.04953 4.35349 0.0860596 5.54199 0.0860596C6.7305 0.0860596 7.69397 1.04953 7.69397 2.23804ZM5.96206 9.08339L3.39002 6.51135V6.97239C3.39002 8.16089 4.35349 9.12437 5.54199 9.12437C5.68574 9.12437 5.8262 9.11027 5.96206 9.08339ZM7.3024 10.4237L6.65254 9.77388C6.30889 9.91022 5.93419 9.98516 5.54199 9.98516C3.87809 9.98516 2.52922 8.6363 2.52922 6.97239V6.1116C2.52922 5.8739 2.33653 5.6812 2.09883 5.6812C1.86113 5.6812 1.66843 5.8739 1.66843 6.1116V6.97239C1.66843 8.96622 3.17484 10.6082 5.1116 10.8223V12.1371H3.39002C3.15231 12.1371 2.95962 12.3298 2.95962 12.5675C2.95962 12.8052 3.15231 12.9979 3.39002 12.9979H7.69397C7.93167 12.9979 8.12437 12.8052 8.12437 12.5675C8.12437 12.3298 7.93167 12.1371 7.69397 12.1371H5.97239V10.8223C6.44683 10.7699 6.89544 10.6317 7.3024 10.4237ZM1.45987 1.5407C1.20618 1.28671 0.794621 1.28647 0.540629 1.54016C0.286638 1.79385 0.286393 2.2054 0.540083 2.4594L10.1867 12.1175C10.4404 12.3715 10.852 12.3717 11.1059 12.118C11.3599 11.8643 11.3602 11.4528 11.1065 11.1988L1.45987 1.5407Z"
    fill="#EF4444" />
</svg>
